{
	"nodes":[{
		"name":"phoneBase",
		"translation":[0.0,
		-1.2274261713027955,
		-1.4899451155524013e-16],
		"rotation":[0.7071067690849304,
		0.0,
		0.0,
		-0.7071067690849304],
		"scale":[1.0,
		1.0,
		1.0],
		"mesh":0
	},
	{
		"name":"phoneScreen",
		"translation":[0.0,
		-1.2274261713027955,
		-1.4899451155524013e-16],
		"rotation":[0.7071067690849304,
		0.0,
		0.0,
		-0.7071067690849304],
		"scale":[1.0,
		1.0,
		1.0],
		"mesh":1
	},
	{
		"name":"phoneControls",
		"translation":[0.0,
		-1.2274261713027955,
		-1.4899451155524013e-16],
		"rotation":[0.7071067690849304,
		0.0,
		0.0,
		-0.7071067690849304],
		"scale":[1.0,
		1.0,
		1.0],
		"mesh":2
	}],
	"asset":{
		"version":"2.0",
		"generator":"Created using the official Cinema 4D glTF Exporter 1.000x284978"
	},
	"scenes":[{
		"nodes":[0,
		1,
		2]
	}],
	"meshes":[{
		"name":"phoneBase",
		"primitives":[{
			"attributes":{
				"POSITION":1
			},
			"indices":0
		}]
	},
	{
		"name":"phoneScreen",
		"primitives":[{
			"attributes":{
				"POSITION":3
			},
			"indices":2
		}]
	},
	{
		"name":"phoneControls",
		"primitives":[{
			"attributes":{
				"POSITION":5
			},
			"indices":4
		}]
	}],
	"accessors":[{
		"bufferView":0,
		"max":[215],
		"type":"SCALAR",
		"componentType":5123,
		"count":1074,
		"byteOffset":0,
		"min":[0]
	},
	{
		"bufferView":1,
		"max":[5.205120086669922,
		11.27776050567627,
		1.2145280838012696],
		"type":"VEC3",
		"componentType":5126,
		"count":216,
		"byteOffset":0,
		"min":[-5.205120086669922,
		-11.27776050567627,
		-7.844413961714894e-33]
	},
	{
		"bufferView":2,
		"max":[37],
		"type":"SCALAR",
		"componentType":5123,
		"count":108,
		"byteOffset":0,
		"min":[0]
	},
	{
		"bufferView":3,
		"max":[4.970279693603516,
		7.145938396453857,
		1.2145280838012696],
		"type":"VEC3",
		"componentType":5126,
		"count":38,
		"byteOffset":0,
		"min":[-4.970279693603516,
		-11.042920112609864,
		1.2145280838012696]
	},
	{
		"bufferView":4,
		"max":[37],
		"type":"SCALAR",
		"componentType":5123,
		"count":108,
		"byteOffset":0,
		"min":[0]
	},
	{
		"bufferView":5,
		"max":[4.970279693603516,
		11.042920112609864,
		1.2145280838012696],
		"type":"VEC3",
		"componentType":5126,
		"count":38,
		"byteOffset":0,
		"min":[-4.970279693603516,
		7.145938396453857,
		1.2145280838012696]
	}],
	"bufferViews":[{
		"buffer":0,
		"byteOffset":0,
		"byteLength":2148,
		"target":34963
	},
	{
		"buffer":0,
		"byteOffset":2148,
		"byteLength":2592,
		"target":34962
	},
	{
		"buffer":1,
		"byteOffset":0,
		"byteLength":216,
		"target":34963
	},
	{
		"buffer":1,
		"byteOffset":216,
		"byteLength":456,
		"target":34962
	},
	{
		"buffer":2,
		"byteOffset":0,
		"byteLength":216,
		"target":34963
	},
	{
		"buffer":2,
		"byteOffset":216,
		"byteLength":456,
		"target":34962
	}],
	"buffers":[{
		"uri":"data:application/octet-stream;base64,",
		"byteLength":4740
	},
	{
		"uri":"data:application/octet-stream;base64,",
		"byteLength":672
	},
	{
		"uri":"data:application/octet-stream;base64,",
		"byteLength":672
	}]
}