{
	"buffers":[{
		"uri":"data:application/octet-stream;base64,",
		"byteLength":9388
	},
	{
		"uri":"data:application/octet-stream;base64,",
		"byteLength":976
	},
	{
		"uri":"data:application/octet-stream;base64,",
		"byteLength":976
	}],
	"nodes":[{
		"name":"phoneBase",
		"translation":[0.0,
		-1.2274261713027955,
		-1.4899451155524013e-16],
		"rotation":[0.7071067690849304,
		0.0,
		0.0,
		-0.7071067690849304],
		"scale":[1.0,
		1.0,
		1.0],
		"mesh":0
	},
	{
		"name":"phoneScreen",
		"translation":[0.0,
		-1.2274261713027955,
		-1.4899451155524013e-16],
		"rotation":[0.7071067690849304,
		0.0,
		0.0,
		-0.7071067690849304],
		"scale":[1.0,
		1.0,
		1.0],
		"mesh":1
	},
	{
		"name":"phoneControls",
		"translation":[0.0,
		-1.2274261713027955,
		-1.4899451155524013e-16],
		"rotation":[0.7071067690849304,
		0.0,
		0.0,
		-0.7071067690849304],
		"scale":[1.0,
		1.0,
		1.0],
		"mesh":2
	}],
	"asset":{
		"version":"2.0",
		"generator":"Created using the official Cinema 4D glTF Exporter 1.000x284978"
	},
	"scenes":[{
		"nodes":[0,
		1,
		2]
	}],
	"meshes":[{
		"name":"phoneBase",
		"primitives":[{
			"attributes":{
				"POSITION":1,
				"TEXCOORD_0":2
			},
			"indices":0
		}]
	},
	{
		"name":"phoneScreen",
		"primitives":[{
			"attributes":{
				"POSITION":4,
				"TEXCOORD_0":5
			},
			"indices":3
		}]
	},
	{
		"name":"phoneControls",
		"primitives":[{
			"attributes":{
				"POSITION":7,
				"TEXCOORD_0":8
			},
			"indices":6
		}]
	}],
	"accessors":[{
		"bufferView":0,
		"type":"SCALAR",
		"componentType":5123,
		"min":[0],
		"count":1074,
		"byteOffset":0,
		"max":[361]
	},
	{
		"bufferView":1,
		"type":"VEC3",
		"componentType":5126,
		"min":[-5.205120086669922,
		-11.27776050567627,
		-7.844413961714894e-33],
		"count":362,
		"byteOffset":0,
		"max":[5.205120086669922,
		11.27776050567627,
		1.2145280838012696]
	},
	{
		"bufferView":1,
		"type":"VEC2",
		"componentType":5126,
		"min":[0.0,
		0.0],
		"count":362,
		"byteOffset":12,
		"max":[1.0,
		1.0]
	},
	{
		"bufferView":2,
		"type":"SCALAR",
		"componentType":5123,
		"min":[0],
		"count":108,
		"byteOffset":0,
		"max":[37]
	},
	{
		"bufferView":3,
		"type":"VEC3",
		"componentType":5126,
		"min":[-4.970279693603516,
		-11.042920112609864,
		1.2145280838012696],
		"count":38,
		"byteOffset":0,
		"max":[4.970279693603516,
		7.145938396453857,
		1.2145280838012696]
	},
	{
		"bufferView":3,
		"type":"VEC2",
		"componentType":5126,
		"min":[0.010411657392978669,
		0.18318447470664979],
		"count":38,
		"byteOffset":12,
		"max":[0.4511268138885498,
		0.9895882606506348]
	},
	{
		"bufferView":4,
		"type":"SCALAR",
		"componentType":5123,
		"min":[0],
		"count":108,
		"byteOffset":0,
		"max":[37]
	},
	{
		"bufferView":5,
		"type":"VEC3",
		"componentType":5126,
		"min":[-4.970279693603516,
		7.145938396453857,
		1.2145280838012696],
		"count":38,
		"byteOffset":0,
		"max":[4.970279693603516,
		11.042920112609864,
		1.2145280838012696]
	},
	{
		"bufferView":5,
		"type":"VEC2",
		"componentType":5126,
		"min":[0.010411657392978669,
		0.010411657392978669],
		"count":38,
		"byteOffset":12,
		"max":[0.45112675428390505,
		0.18318450450897218]
	}],
	"bufferViews":[{
		"buffer":0,
		"byteOffset":0,
		"byteLength":2148,
		"target":34963
	},
	{
		"buffer":0,
		"byteOffset":2148,
		"byteLength":7240,
		"target":34962,
		"byteStride":20
	},
	{
		"buffer":1,
		"byteOffset":0,
		"byteLength":216,
		"target":34963
	},
	{
		"buffer":1,
		"byteOffset":216,
		"byteLength":760,
		"target":34962,
		"byteStride":20
	},
	{
		"buffer":2,
		"byteOffset":0,
		"byteLength":216,
		"target":34963
	},
	{
		"buffer":2,
		"byteOffset":216,
		"byteLength":760,
		"target":34962,
		"byteStride":20
	}]
}