{
	"nodes":[{
		"name":"SIDE_SHAPES",
		"children":[1,
		2,
		3]
	},
	{
		"name":"side_flower",
		"mesh":0
	},
	{
		"name":"side_diamond",
		"mesh":1
	},
	{
		"name":"side_heart",
		"mesh":2
	},
	{
		"name":"POP_SOCKET_GRP",
		"children":[5,
		6,
		7,
		8,
		9,
		10]
	},
	{
		"name":"popsocket",
		"translation":[0.0,
		0.0005645424826070666,
		0.0],
		"rotation":[0.0,
		0.0,
		0.0,
		-1.0],
		"scale":[1.0,
		1.0,
		1.0],
		"mesh":3
	},
	{
		"name":"flower",
		"translation":[0.008159385994076729,
		2.7934436798095705,
		0.029792672023177148],
		"rotation":[0.0,
		0.0,
		0.0,
		-1.0],
		"scale":[1.0,
		1.0,
		1.0],
		"mesh":4
	},
	{
		"name":"diamond",
		"translation":[-0.00110442575532943,
		2.7927041053771974,
		0.04992084950208664],
		"rotation":[0.0,
		0.7071067690849304,
		0.0,
		0.7071067690849304],
		"scale":[1.0,
		1.0,
		1.0],
		"mesh":5
	},
	{
		"name":"heart",
		"translation":[0.008179363794624806,
		2.7932369709014894,
		-0.046185050159692767],
		"rotation":[3.7030435841192019e-19,
		0.999981701374054,
		0.0060475291684269909,
		-6.123121766362532e-17],
		"scale":[1.0,
		1.0,
		1.0],
		"mesh":6
	},
	{
		"name":"rose",
		"translation":[-0.0721953958272934,
		2.7240817546844484,
		0.07389086484909058],
		"rotation":[0.0,
		0.0,
		0.0,
		-1.0],
		"scale":[1.0,
		1.0,
		1.0],
		"mesh":7
	},
	{
		"name":"skull",
		"translation":[0.0,
		2.9354939460754396,
		-0.436644047498703],
		"rotation":[0.0,
		0.0,
		0.0,
		-1.0],
		"scale":[1.0,
		1.0,
		1.0],
		"mesh":8
	},
	{
		"name":"TIKTOK",
		"translation":[0.3061707317829132,
		0.0,
		-0.009233307093381882],
		"children":[12,
		13,
		14],
		"rotation":[0.0,
		0.0,
		0.0,
		-1.0],
		"scale":[1.0,
		1.0,
		1.0]
	},
	{
		"name":"TT_RED",
		"translation":[-3.3306690738754698e-16,
		0.07243426889181137,
		3.120577096939087],
		"rotation":[0.0,
		0.0,
		0.0,
		-1.0],
		"scale":[1.0,
		1.0,
		1.0],
		"mesh":9
	},
	{
		"name":"TT_BLACK",
		"translation":[-3.3861802251067276e-15,
		0.07243426889181137,
		3.120577096939087],
		"rotation":[0.0,
		0.0,
		0.0,
		-1.0],
		"scale":[1.0,
		1.0,
		1.0],
		"mesh":10
	},
	{
		"name":"TT_BLUE",
		"translation":[-3.3306690738754698e-16,
		0.07243426889181137,
		3.120577096939087],
		"rotation":[0.0,
		0.0,
		0.0,
		-1.0],
		"scale":[1.0,
		1.0,
		1.0],
		"mesh":11
	},
	{
		"name":"ICONS",
		"translation":[-3.727538585662842,
		0.0,
		-8.034911155700684],
		"children":[16,
		17,
		18,
		19,
		20,
		21,
		22],
		"rotation":[0.0,
		0.0,
		0.0,
		-1.0],
		"scale":[1.0,
		1.0,
		1.0]
	},
	{
		"name":"ICON_scale_up",
		"translation":[0.000595418328884989,
		0.199720561504364,
		-0.004249407444149256],
		"rotation":[2.220446049250313e-16,
		0.0,
		0.0,
		-1.0],
		"scale":[1.0,
		1.0,
		1.0],
		"mesh":12
	},
	{
		"name":"ICON_scale_down",
		"translation":[0.000595418328884989,
		0.199720561504364,
		-0.004249407444149256],
		"rotation":[2.220446049250313e-16,
		0.0,
		0.0,
		-1.0],
		"scale":[1.0,
		1.0,
		1.0],
		"mesh":13
	},
	{
		"name":"ICON_move",
		"translation":[0.000595418328884989,
		0.199720561504364,
		-0.004249407444149256],
		"rotation":[2.220446049250313e-16,
		0.0,
		0.0,
		-1.0],
		"scale":[1.0,
		1.0,
		1.0],
		"mesh":14
	},
	{
		"name":"ICON_edit",
		"mesh":15
	},
	{
		"name":"ICON_creator",
		"mesh":16
	},
	{
		"name":"ICON_delete",
		"mesh":17
	},
	{
		"name":"ICON_info",
		"mesh":18
	},
	{
		"name":"PHONE",
		"translation":[0.0,
		-1.2274261713027955,
		-1.4899451155524013e-16],
		"children":[24],
		"rotation":[0.7071067690849304,
		0.0,
		0.0,
		-0.7071067690849304],
		"scale":[1.0,
		1.0,
		1.0]
	},
	{
		"name":"phoneBack",
		"translation":[0.0,
		-7.383633846819019e-17,
		1.2274261713027955],
		"rotation":[-0.7071067690849304,
		0.0,
		0.0,
		-0.7071067690849304],
		"scale":[1.0,
		1.0,
		1.0],
		"mesh":19
	}],
	"asset":{
		"version":"2.0",
		"generator":"Created using the official Cinema 4D glTF Exporter 1.000x284978"
	},
	"scenes":[{
		"nodes":[0,
		4,
		11,
		15,
		23]
	}],
	"meshes":[{
		"name":"side_flower",
		"primitives":[{
			"attributes":{
				"POSITION":1,
				"TEXCOORD_0":2
			},
			"indices":0
		}]
	},
	{
		"name":"side_diamond",
		"primitives":[{
			"attributes":{
				"POSITION":4
			},
			"indices":3
		}]
	},
	{
		"name":"side_heart",
		"primitives":[{
			"attributes":{
				"POSITION":6
			},
			"indices":5
		}]
	},
	{
		"name":"popsocket",
		"primitives":[{
			"attributes":{
				"POSITION":8,
				"TEXCOORD_0":9
			},
			"indices":7
		}]
	},
	{
		"name":"flower",
		"primitives":[{
			"attributes":{
				"POSITION":11,
				"TEXCOORD_0":12
			},
			"indices":10
		}]
	},
	{
		"name":"diamond",
		"primitives":[{
			"attributes":{
				"POSITION":14
			},
			"indices":13
		}]
	},
	{
		"name":"heart",
		"primitives":[{
			"attributes":{
				"POSITION":16
			},
			"indices":15
		}]
	},
	{
		"name":"rose",
		"primitives":[{
			"attributes":{
				"POSITION":18
			},
			"indices":17,
			"material":0
		}]
	},
	{
		"name":"skull",
		"primitives":[{
			"attributes":{
				"POSITION":20
			},
			"indices":19
		}]
	},
	{
		"name":"TT_RED",
		"primitives":[{
			"attributes":{
				"POSITION":22,
				"TEXCOORD_0":23
			},
			"indices":21
		}]
	},
	{
		"name":"TT_BLACK",
		"primitives":[{
			"attributes":{
				"POSITION":25,
				"TEXCOORD_0":26
			},
			"indices":24
		}]
	},
	{
		"name":"TT_BLUE",
		"primitives":[{
			"attributes":{
				"POSITION":28,
				"TEXCOORD_0":29
			},
			"indices":27
		}]
	},
	{
		"name":"ICON_scale_up",
		"primitives":[{
			"attributes":{
				"POSITION":31,
				"TEXCOORD_0":32
			},
			"indices":30
		}]
	},
	{
		"name":"ICON_scale_down",
		"primitives":[{
			"attributes":{
				"POSITION":34,
				"TEXCOORD_0":35
			},
			"indices":33
		}]
	},
	{
		"name":"ICON_move",
		"primitives":[{
			"attributes":{
				"POSITION":37,
				"TEXCOORD_0":38
			},
			"indices":36
		}]
	},
	{
		"name":"ICON_edit",
		"primitives":[{
			"attributes":{
				"POSITION":40,
				"TEXCOORD_0":41
			},
			"indices":39
		}]
	},
	{
		"name":"ICON_creator",
		"primitives":[{
			"attributes":{
				"POSITION":43,
				"TEXCOORD_0":44
			},
			"indices":42
		}]
	},
	{
		"name":"ICON_delete",
		"primitives":[{
			"attributes":{
				"POSITION":46,
				"TEXCOORD_0":47
			},
			"indices":45
		}]
	},
	{
		"name":"ICON_info",
		"primitives":[{
			"attributes":{
				"POSITION":49,
				"TEXCOORD_0":50
			},
			"indices":48
		}]
	},
	{
		"name":"phoneBack",
		"primitives":[{
			"attributes":{
				"POSITION":52,
				"TEXCOORD_0":53
			},
			"indices":51
		}]
	}],
	"accessors":[{
		"bufferView":0,
		"type":"SCALAR",
		"componentType":5123,
		"count":4860,
		"byteOffset":0,
		"min":[0],
		"max":[1115]
	},
	{
		"bufferView":1,
		"type":"VEC3",
		"componentType":5126,
		"count":1116,
		"byteOffset":0,
		"min":[-2.742851495742798,
		0.022475866600871087,
		-2.742851495742798],
		"max":[2.742851495742798,
		1.316020131111145,
		2.742851495742798]
	},
	{
		"bufferView":1,
		"type":"VEC2",
		"componentType":5126,
		"count":1116,
		"byteOffset":12,
		"min":[0.0,
		0.0],
		"max":[1.0,
		0.8659999370574951]
	},
	{
		"bufferView":2,
		"type":"SCALAR",
		"componentType":5123,
		"count":432,
		"byteOffset":0,
		"min":[0],
		"max":[73]
	},
	{
		"bufferView":3,
		"type":"VEC3",
		"componentType":5126,
		"count":74,
		"byteOffset":0,
		"min":[-2.378662109375,
		1.1102230246251566e-16,
		-2.3789172172546388],
		"max":[2.378661632537842,
		2.954237222671509,
		2.3784070014953615]
	},
	{
		"bufferView":4,
		"type":"SCALAR",
		"componentType":5123,
		"count":360,
		"byteOffset":0,
		"min":[0],
		"max":[61]
	},
	{
		"bufferView":5,
		"type":"VEC3",
		"componentType":5126,
		"count":62,
		"byteOffset":0,
		"min":[-2.277942180633545,
		0.0,
		-2.2756223678588869],
		"max":[2.277942419052124,
		2.9009525775909426,
		2.265223741531372]
	},
	{
		"bufferView":6,
		"type":"SCALAR",
		"componentType":5123,
		"count":3996,
		"byteOffset":0,
		"min":[0],
		"max":[684]
	},
	{
		"bufferView":7,
		"type":"VEC3",
		"componentType":5126,
		"count":685,
		"byteOffset":0,
		"min":[-2.5707828998565676,
		0.0009785178117454053,
		-2.5707828998565676],
		"max":[2.5707828998565676,
		2.9301202297210695,
		2.5707828998565676]
	},
	{
		"bufferView":7,
		"type":"VEC2",
		"componentType":5126,
		"count":685,
		"byteOffset":12,
		"min":[0.3101034164428711,
		0.3101034164428711],
		"max":[0.6898965835571289,
		0.6898965835571289]
	},
	{
		"bufferView":8,
		"type":"SCALAR",
		"componentType":5123,
		"count":4860,
		"byteOffset":0,
		"min":[0],
		"max":[1107]
	},
	{
		"bufferView":9,
		"type":"VEC3",
		"componentType":5126,
		"count":1108,
		"byteOffset":0,
		"min":[-2.742851495742798,
		0.00001052957941283239,
		-2.742851495742798],
		"max":[2.742851495742798,
		1.0401767492294312,
		2.742851495742798]
	},
	{
		"bufferView":9,
		"type":"VEC2",
		"componentType":5126,
		"count":1108,
		"byteOffset":12,
		"min":[0.0,
		0.0],
		"max":[1.0,
		0.8659999370574951]
	},
	{
		"bufferView":10,
		"type":"SCALAR",
		"componentType":5123,
		"count":378,
		"byteOffset":0,
		"min":[0],
		"max":[64]
	},
	{
		"bufferView":11,
		"type":"VEC3",
		"componentType":5126,
		"count":65,
		"byteOffset":0,
		"min":[-2.5330986976623537,
		-0.0034257909283041956,
		-2.5332753658294679],
		"max":[2.5330982208251955,
		0.7249221205711365,
		2.5330421924591066]
	},
	{
		"bufferView":12,
		"type":"SCALAR",
		"componentType":5123,
		"count":300,
		"byteOffset":0,
		"min":[0],
		"max":[51]
	},
	{
		"bufferView":13,
		"type":"VEC3",
		"componentType":5126,
		"count":52,
		"byteOffset":0,
		"min":[-2.3013219833374025,
		0.0004548171709757298,
		-2.637017011642456],
		"max":[2.3013219833374025,
		0.9181235432624817,
		1.9808704853057862]
	},
	{
		"bufferView":14,
		"type":"SCALAR",
		"componentType":5123,
		"count":2757,
		"byteOffset":0,
		"min":[0],
		"max":[464]
	},
	{
		"bufferView":15,
		"type":"VEC3",
		"componentType":5126,
		"count":465,
		"byteOffset":0,
		"min":[-2.154365301132202,
		-0.01533588208258152,
		-2.675450325012207],
		"max":[2.5671801567077638,
		2.524524688720703,
		2.467106342315674]
	},
	{
		"bufferView":16,
		"type":"SCALAR",
		"componentType":5123,
		"count":318,
		"byteOffset":0,
		"min":[0],
		"max":[71]
	},
	{
		"bufferView":17,
		"type":"VEC3",
		"componentType":5126,
		"count":72,
		"byteOffset":0,
		"min":[-1.7934958934783936,
		0.0,
		-2.243443489074707],
		"max":[1.7770289182662964,
		2.468289613723755,
		2.9886891841888429]
	},
	{
		"bufferView":18,
		"type":"SCALAR",
		"componentType":5123,
		"count":16260,
		"byteOffset":0,
		"min":[0],
		"max":[5593]
	},
	{
		"bufferView":19,
		"type":"VEC3",
		"componentType":5126,
		"count":5594,
		"byteOffset":0,
		"min":[-3.7377822399139406,
		-0.08620839565992356,
		-7.775642395019531],
		"max":[4.055935859680176,
		2.031487998654935e-11,
		2.9685001373291017]
	},
	{
		"bufferView":19,
		"type":"VEC2",
		"componentType":5126,
		"count":5594,
		"byteOffset":12,
		"min":[0.0,
		0.0],
		"max":[1.0,
		1.0]
	},
	{
		"bufferView":20,
		"type":"SCALAR",
		"componentType":5123,
		"count":17088,
		"byteOffset":0,
		"min":[0],
		"max":[5757]
	},
	{
		"bufferView":21,
		"type":"VEC3",
		"componentType":5126,
		"count":5758,
		"byteOffset":0,
		"min":[-3.7436602115631105,
		-3.067657535168027e-17,
		-7.503148555755615],
		"max":[3.864763021469116,
		0.1724167913198471,
		3.3393115997314455]
	},
	{
		"bufferView":21,
		"type":"VEC2",
		"componentType":5126,
		"count":5758,
		"byteOffset":12,
		"min":[0.0,
		0.0],
		"max":[1.0,
		1.0]
	},
	{
		"bufferView":22,
		"type":"SCALAR",
		"componentType":5123,
		"count":16272,
		"byteOffset":0,
		"min":[0],
		"max":[5603]
	},
	{
		"bufferView":23,
		"type":"VEC3",
		"componentType":5126,
		"count":5604,
		"byteOffset":0,
		"min":[-3.8557472229003908,
		-0.08620839565992356,
		-6.994582653045654],
		"max":[3.7969868183135988,
		2.8510534211267925e-11,
		3.4662673473358156]
	},
	{
		"bufferView":23,
		"type":"VEC2",
		"componentType":5126,
		"count":5604,
		"byteOffset":12,
		"min":[0.0,
		0.0],
		"max":[1.0,
		1.0]
	},
	{
		"bufferView":24,
		"type":"SCALAR",
		"componentType":5123,
		"count":192,
		"byteOffset":0,
		"min":[0],
		"max":[75]
	},
	{
		"bufferView":25,
		"type":"VEC3",
		"componentType":5126,
		"count":76,
		"byteOffset":0,
		"min":[-0.5914915204048157,
		-0.2000001072883606,
		-0.5899869203567505],
		"max":[0.591490626335144,
		-1.1121372267552943e-7,
		0.5899871587753296]
	},
	{
		"bufferView":25,
		"type":"VEC2",
		"componentType":5126,
		"count":76,
		"byteOffset":12,
		"min":[0.0,
		0.0],
		"max":[1.0,
		1.0]
	},
	{
		"bufferView":26,
		"type":"SCALAR",
		"componentType":5123,
		"count":192,
		"byteOffset":0,
		"min":[0],
		"max":[75]
	},
	{
		"bufferView":27,
		"type":"VEC3",
		"componentType":5126,
		"count":76,
		"byteOffset":0,
		"min":[-0.589886486530304,
		-0.2000001072883606,
		-0.5898866057395935],
		"max":[0.589886486530304,
		-1.1121372267552943e-7,
		0.5898863673210144]
	},
	{
		"bufferView":27,
		"type":"VEC2",
		"componentType":5126,
		"count":76,
		"byteOffset":12,
		"min":[0.0,
		0.0],
		"max":[1.0,
		1.0]
	},
	{
		"bufferView":28,
		"type":"SCALAR",
		"componentType":5123,
		"count":372,
		"byteOffset":0,
		"min":[0],
		"max":[129]
	},
	{
		"bufferView":29,
		"type":"VEC3",
		"componentType":5126,
		"count":130,
		"byteOffset":0,
		"min":[-0.6193325519561768,
		-0.2000001072883606,
		-0.6193315386772156],
		"max":[0.6193325519561768,
		-1.1121372267552943e-7,
		0.6193313598632813]
	},
	{
		"bufferView":29,
		"type":"VEC2",
		"componentType":5126,
		"count":130,
		"byteOffset":12,
		"min":[0.0,
		0.0],
		"max":[1.0,
		1.0]
	},
	{
		"bufferView":30,
		"type":"SCALAR",
		"componentType":5123,
		"count":1632,
		"byteOffset":0,
		"min":[0],
		"max":[555]
	},
	{
		"bufferView":31,
		"type":"VEC3",
		"componentType":5126,
		"count":556,
		"byteOffset":0,
		"min":[-0.4954952895641327,
		-1.1506577595004382e-18,
		-0.4028117060661316],
		"max":[0.5122527480125427,
		0.20000000298023225,
		0.8088864684104919]
	},
	{
		"bufferView":31,
		"type":"VEC2",
		"componentType":5126,
		"count":556,
		"byteOffset":12,
		"min":[0.0,
		0.0],
		"max":[1.0,
		1.0]
	},
	{
		"bufferView":32,
		"type":"SCALAR",
		"componentType":5123,
		"count":3096,
		"byteOffset":0,
		"min":[0],
		"max":[1041]
	},
	{
		"bufferView":33,
		"type":"VEC3",
		"componentType":5126,
		"count":1042,
		"byteOffset":0,
		"min":[-0.43805381655693056,
		-8.599239367154799e-19,
		-0.47533488273620608],
		"max":[0.4369376599788666,
		0.19999946653842927,
		0.5565776824951172]
	},
	{
		"bufferView":33,
		"type":"VEC2",
		"componentType":5126,
		"count":1042,
		"byteOffset":12,
		"min":[0.0,
		0.0],
		"max":[1.0,
		1.0]
	},
	{
		"bufferView":34,
		"type":"SCALAR",
		"componentType":5123,
		"count":1548,
		"byteOffset":0,
		"min":[0],
		"max":[515]
	},
	{
		"bufferView":35,
		"type":"VEC3",
		"componentType":5126,
		"count":516,
		"byteOffset":0,
		"min":[-0.6044564843177795,
		-0.20000000298023225,
		-0.6838964223861694],
		"max":[0.6044564843177795,
		4.187658099331356e-17,
		0.6838964223861694]
	},
	{
		"bufferView":35,
		"type":"VEC2",
		"componentType":5126,
		"count":516,
		"byteOffset":12,
		"min":[0.0,
		0.0],
		"max":[1.0,
		1.0]
	},
	{
		"bufferView":36,
		"type":"SCALAR",
		"componentType":5123,
		"count":3528,
		"byteOffset":0,
		"min":[0],
		"max":[1191]
	},
	{
		"bufferView":37,
		"type":"VEC3",
		"componentType":5126,
		"count":1192,
		"byteOffset":0,
		"min":[-0.6855001449584961,
		-4.197499232515022e-17,
		-0.6855036616325378],
		"max":[0.6855001449584961,
		0.20000000298023225,
		0.6855036616325378]
	},
	{
		"bufferView":37,
		"type":"VEC2",
		"componentType":5126,
		"count":1192,
		"byteOffset":12,
		"min":[0.0,
		0.0],
		"max":[1.0,
		1.0]
	},
	{
		"bufferView":38,
		"type":"SCALAR",
		"componentType":5123,
		"count":1284,
		"byteOffset":0,
		"min":[0],
		"max":[361]
	},
	{
		"bufferView":39,
		"type":"VEC3",
		"componentType":5126,
		"count":362,
		"byteOffset":0,
		"min":[-5.211255073547363,
		-1.0,
		-10.871199607849121],
		"max":[5.211255073547363,
		-0.013440617360174656,
		10.871199607849121]
	},
	{
		"bufferView":39,
		"type":"VEC2",
		"componentType":5126,
		"count":362,
		"byteOffset":12,
		"min":[0.0,
		0.0],
		"max":[1.0,
		1.0]
	}],
	"bufferViews":[{
		"buffer":0,
		"byteOffset":0,
		"byteLength":9720,
		"target":34963
	},
	{
		"buffer":0,
		"byteOffset":9720,
		"byteLength":22320,
		"target":34962,
		"byteStride":20
	},
	{
		"buffer":1,
		"byteOffset":0,
		"byteLength":864,
		"target":34963
	},
	{
		"buffer":1,
		"byteOffset":864,
		"byteLength":888,
		"target":34962
	},
	{
		"buffer":2,
		"byteOffset":0,
		"byteLength":720,
		"target":34963
	},
	{
		"buffer":2,
		"byteOffset":720,
		"byteLength":744,
		"target":34962
	},
	{
		"buffer":3,
		"byteOffset":0,
		"byteLength":7992,
		"target":34963
	},
	{
		"buffer":3,
		"byteOffset":7992,
		"byteLength":13700,
		"target":34962,
		"byteStride":20
	},
	{
		"buffer":4,
		"byteOffset":0,
		"byteLength":9720,
		"target":34963
	},
	{
		"buffer":4,
		"byteOffset":9720,
		"byteLength":22160,
		"target":34962,
		"byteStride":20
	},
	{
		"buffer":5,
		"byteOffset":0,
		"byteLength":756,
		"target":34963
	},
	{
		"buffer":5,
		"byteOffset":756,
		"byteLength":780,
		"target":34962
	},
	{
		"buffer":6,
		"byteOffset":0,
		"byteLength":600,
		"target":34963
	},
	{
		"buffer":6,
		"byteOffset":600,
		"byteLength":624,
		"target":34962
	},
	{
		"buffer":7,
		"byteOffset":0,
		"byteLength":5514,
		"target":34963
	},
	{
		"buffer":7,
		"byteOffset":5516,
		"byteLength":5580,
		"target":34962
	},
	{
		"buffer":8,
		"byteOffset":0,
		"byteLength":636,
		"target":34963
	},
	{
		"buffer":8,
		"byteOffset":636,
		"byteLength":864,
		"target":34962
	},
	{
		"buffer":9,
		"byteOffset":0,
		"byteLength":32520,
		"target":34963
	},
	{
		"buffer":9,
		"byteOffset":32520,
		"byteLength":111880,
		"target":34962,
		"byteStride":20
	},
	{
		"buffer":10,
		"byteOffset":0,
		"byteLength":34176,
		"target":34963
	},
	{
		"buffer":10,
		"byteOffset":34176,
		"byteLength":115160,
		"target":34962,
		"byteStride":20
	},
	{
		"buffer":11,
		"byteOffset":0,
		"byteLength":32544,
		"target":34963
	},
	{
		"buffer":11,
		"byteOffset":32544,
		"byteLength":112080,
		"target":34962,
		"byteStride":20
	},
	{
		"buffer":12,
		"byteOffset":0,
		"byteLength":384,
		"target":34963
	},
	{
		"buffer":12,
		"byteOffset":384,
		"byteLength":1520,
		"target":34962,
		"byteStride":20
	},
	{
		"buffer":13,
		"byteOffset":0,
		"byteLength":384,
		"target":34963
	},
	{
		"buffer":13,
		"byteOffset":384,
		"byteLength":1520,
		"target":34962,
		"byteStride":20
	},
	{
		"buffer":14,
		"byteOffset":0,
		"byteLength":744,
		"target":34963
	},
	{
		"buffer":14,
		"byteOffset":744,
		"byteLength":2600,
		"target":34962,
		"byteStride":20
	},
	{
		"buffer":15,
		"byteOffset":0,
		"byteLength":3264,
		"target":34963
	},
	{
		"buffer":15,
		"byteOffset":3264,
		"byteLength":11120,
		"target":34962,
		"byteStride":20
	},
	{
		"buffer":16,
		"byteOffset":0,
		"byteLength":6192,
		"target":34963
	},
	{
		"buffer":16,
		"byteOffset":6192,
		"byteLength":20840,
		"target":34962,
		"byteStride":20
	},
	{
		"buffer":17,
		"byteOffset":0,
		"byteLength":3096,
		"target":34963
	},
	{
		"buffer":17,
		"byteOffset":3096,
		"byteLength":10320,
		"target":34962,
		"byteStride":20
	},
	{
		"buffer":18,
		"byteOffset":0,
		"byteLength":7056,
		"target":34963
	},
	{
		"buffer":18,
		"byteOffset":7056,
		"byteLength":23840,
		"target":34962,
		"byteStride":20
	},
	{
		"buffer":19,
		"byteOffset":0,
		"byteLength":2568,
		"target":34963
	},
	{
		"buffer":19,
		"byteOffset":2568,
		"byteLength":7240,
		"target":34962,
		"byteStride":20
	}],
	"buffers":[{
		"uri":"data:application/octet-stream;base64,",
		"byteLength":32040
	},
	{
		"uri":"data:application/octet-stream;base64,",
		"byteLength":1752
	},
	{
		"uri":"data:application/octet-stream;base64,",
		"byteLength":1464
	},
	{
		"uri":"data:application/octet-stream;base64,",
		"byteLength":21692
	},
	{
		"uri":"data:application/octet-stream;base64,",
		"byteLength":31880
	},
	{
		"uri":"data:application/octet-stream;base64,",
		"byteLength":1536
	},
	{
		"uri":"data:application/octet-stream;base64,",
		"byteLength":1224
	},
	{
		"uri":"data:application/octet-stream;base64,",
		"byteLength":11096
	},
	{
		"uri":"data:application/octet-stream;base64,",
		"byteLength":1500
	},
	{
		"uri":"data:application/octet-stream;base64,",
		"byteLength":144400
	},
	{
		"uri":"data:application/octet-stream;base64,",
		"byteLength":149336
	},
	{
		"uri":"data:application/octet-stream;base64,",
		"byteLength":144624
	},
	{
		"uri":"data:application/octet-stream;base64,",
		"byteLength":1904
	},
	{
		"uri":"data:application/octet-stream;base64,",
		"byteLength":1904
	},
	{
		"uri":"data:application/octet-stream;base64,",
		"byteLength":3344
	},
	{
		"uri":"data:application/octet-stream;base64,",
		"byteLength":14384
	},
	{
		"uri":"data:application/octet-stream;base64,",
		"byteLength":27032
	},
	{
		"uri":"data:application/octet-stream;base64,",
		"byteLength":13416
	},
	{
		"uri":"data:application/octet-stream;base64,",
		"byteLength":30896
	},
	{
		"uri":"data:application/octet-stream;base64,",
		"byteLength":9808
	}],
	"materials":[{
		"emissiveFactor":[0.0,
		0.0,
		0.0],
		"pbrMetallicRoughness":{
			"baseColorFactor":[1.0,
			1.0,
			1.0,
			1.0],
			"metallicFactor":0.0,
			"roughnessFactor":0.5
		},
		"doubleSided":false,
		"alphaMode":"OPAQUE",
		"name":"_15740_Rose_Bud_v1_NEW_15740_Rose_Bud_v1_NEW_15740_Rose_Bud_v1_15740_Rose_Bud_v1default"
	}]
}