{
	"nodes":[{
		"name":"CUBE",
		"translation":[0.5,
		0.0,
		0.5],
		"rotation":[0.0,
		0.0,
		0.0,
		-1.0],
		"scale":[1.0,
		1.0,
		1.0],
		"mesh":0
	}],
	"asset":{
		"version":"2.0",
		"generator":"Created using the official Cinema 4D glTF Exporter 1.000x284978"
	},
	"scenes":[{
		"nodes":[0]
	}],
	"meshes":[{
		"name":"CUBE",
		"primitives":[{
			"attributes":{
				"POSITION":1
			},
			"indices":0
		}]
	}],
	"accessors":[{
		"bufferView":0,
		"byteOffset":0,
		"type":"SCALAR",
		"componentType":5123,
		"count":60,
		"min":[0],
		"max":[11]
	},
	{
		"bufferView":1,
		"byteOffset":0,
		"type":"VEC3",
		"componentType":5126,
		"count":12,
		"min":[-0.5,
		-0.009999999776482582,
		-0.5],
		"max":[0.5,
		0.10000000149011612,
		0.5]
	}],
	"bufferViews":[{
		"buffer":0,
		"byteOffset":0,
		"byteLength":120,
		"target":34963
	},
	{
		"buffer":0,
		"byteOffset":120,
		"byteLength":144,
		"target":34962
	}],
	"buffers":[{
		"uri":"data:application/octet-stream;base64,",
		"byteLength":264
	}]
}