{
	"nodes":[{
		"name":"piramid",
		"translation":[0.5,
		0.0,
		0.5],
		"rotation":[0.0,
		0.0,
		0.0,
		-1.0],
		"scale":[1.0,
		1.0,
		1.0],
		"mesh":0
	},
	{
		"name":"cube",
		"translation":[0.5,
		0.0,
		0.5],
		"rotation":[0.0,
		0.0,
		0.0,
		-1.0],
		"scale":[1.0,
		1.0,
		1.0],
		"mesh":1
	},
	{
		"name":"capsule",
		"translation":[0.4994857609272003,
		0.0,
		0.5001710057258606],
		"rotation":[0.0,
		0.0,
		0.0,
		-1.0],
		"scale":[1.0,
		1.0,
		1.0],
		"mesh":2
	},
	{
		"name":"diamond",
		"translation":[0.5,
		0.0,
		0.5],
		"rotation":[0.0,
		0.0,
		0.0,
		-1.0],
		"scale":[1.0,
		1.0,
		1.0],
		"mesh":3
	},
	{
		"name":"brilliant",
		"translation":[0.49937164783477785,
		0.726767361164093,
		0.5000247359275818],
		"rotation":[0.0,
		0.0,
		0.0,
		-1.0],
		"scale":[1.0,
		1.0,
		1.0],
		"mesh":4
	},
	{
		"name":"emerald",
		"translation":[0.5,
		0.0,
		0.5],
		"rotation":[0.0,
		0.0,
		0.0,
		-1.0],
		"scale":[1.0,
		1.0,
		1.0],
		"mesh":5
	},
	{
		"name":"heart",
		"translation":[0.5,
		-0.00009781450353330001,
		0.5690111517906189],
		"rotation":[0.0,
		0.0,
		0.0,
		-1.0],
		"scale":[1.0,
		1.0,
		1.0],
		"mesh":6
	},
	{
		"name":"emerald_simple",
		"translation":[0.5,
		0.0,
		0.5],
		"rotation":[0.0,
		0.0,
		0.0,
		-1.0],
		"scale":[1.0,
		1.0,
		1.0],
		"mesh":7
	}],
	"asset":{
		"version":"2.0",
		"generator":"Created using the official Cinema 4D glTF Exporter 1.000x284978"
	},
	"scenes":[{
		"nodes":[0,
		1,
		2,
		3,
		4,
		5,
		6,
		7]
	}],
	"meshes":[{
		"name":"piramid",
		"primitives":[{
			"attributes":{
				"POSITION":1
			},
			"indices":0
		}]
	},
	{
		"name":"cube",
		"primitives":[{
			"attributes":{
				"POSITION":3
			},
			"indices":2
		}]
	},
	{
		"name":"capsule",
		"primitives":[{
			"attributes":{
				"POSITION":5
			},
			"indices":4
		}]
	},
	{
		"name":"diamond",
		"primitives":[{
			"attributes":{
				"POSITION":7
			},
			"indices":6
		}]
	},
	{
		"name":"brilliant",
		"primitives":[{
			"attributes":{
				"POSITION":9
			},
			"indices":8
		}]
	},
	{
		"name":"emerald",
		"primitives":[{
			"attributes":{
				"POSITION":11
			},
			"indices":10
		}]
	},
	{
		"name":"heart",
		"primitives":[{
			"attributes":{
				"POSITION":13
			},
			"indices":12
		}]
	},
	{
		"name":"emerald_simple",
		"primitives":[{
			"attributes":{
				"POSITION":15
			},
			"indices":14
		}]
	}],
	"accessors":[{
		"bufferView":0,
		"type":"SCALAR",
		"componentType":5123,
		"count":60,
		"byteOffset":0,
		"min":[0],
		"max":[11]
	},
	{
		"bufferView":1,
		"type":"VEC3",
		"componentType":5126,
		"count":12,
		"byteOffset":0,
		"min":[-0.5,
		-0.009999999776482582,
		-0.5],
		"max":[0.5,
		0.10000000149011612,
		0.5]
	},
	{
		"bufferView":2,
		"type":"SCALAR",
		"componentType":5123,
		"count":60,
		"byteOffset":0,
		"min":[0],
		"max":[11]
	},
	{
		"bufferView":3,
		"type":"VEC3",
		"componentType":5126,
		"count":12,
		"byteOffset":0,
		"min":[-0.5,
		-0.009999999776482582,
		-0.5],
		"max":[0.5,
		0.10000000149011612,
		0.5]
	},
	{
		"bufferView":4,
		"type":"SCALAR",
		"componentType":5123,
		"count":912,
		"byteOffset":0,
		"min":[0],
		"max":[160]
	},
	{
		"bufferView":5,
		"type":"VEC3",
		"componentType":5126,
		"count":161,
		"byteOffset":0,
		"min":[-0.49893835186958315,
		0.001684233546257019,
		-0.4952191710472107],
		"max":[0.5010616183280945,
		0.5433884263038635,
		0.4952191710472107]
	},
	{
		"bufferView":6,
		"type":"SCALAR",
		"componentType":5123,
		"count":267,
		"byteOffset":0,
		"min":[0],
		"max":[51]
	},
	{
		"bufferView":7,
		"type":"VEC3",
		"componentType":5126,
		"count":52,
		"byteOffset":0,
		"min":[-0.49721217155456545,
		-0.0007781242020428181,
		-0.4930206835269928],
		"max":[0.49721217155456545,
		0.1996258646249771,
		0.4930206835269928]
	},
	{
		"bufferView":8,
		"type":"SCALAR",
		"componentType":5123,
		"count":408,
		"byteOffset":0,
		"min":[0],
		"max":[72]
	},
	{
		"bufferView":9,
		"type":"VEC3",
		"componentType":5126,
		"count":73,
		"byteOffset":0,
		"min":[-0.4997558295726776,
		-0.7271684408187866,
		-0.49889513850212099],
		"max":[0.49998408555984499,
		-0.5268288850784302,
		0.4991878271102905]
	},
	{
		"bufferView":10,
		"type":"SCALAR",
		"componentType":5123,
		"count":264,
		"byteOffset":0,
		"min":[0],
		"max":[48]
	},
	{
		"bufferView":11,
		"type":"VEC3",
		"componentType":5126,
		"count":49,
		"byteOffset":0,
		"min":[-0.4968101978302002,
		0.00009509196388535202,
		-0.4970815181732178],
		"max":[0.4968102276325226,
		0.1987568736076355,
		0.49803227186203005]
	},
	{
		"bufferView":12,
		"type":"SCALAR",
		"componentType":5123,
		"count":258,
		"byteOffset":0,
		"min":[0],
		"max":[51]
	},
	{
		"bufferView":13,
		"type":"VEC3",
		"componentType":5126,
		"count":52,
		"byteOffset":0,
		"min":[-0.49710869789123537,
		0.00011222498869756237,
		-0.5662107467651367],
		"max":[0.49710869789123537,
		0.19833789765834809,
		0.4244765043258667]
	},
	{
		"bufferView":14,
		"type":"SCALAR",
		"componentType":5123,
		"count":120,
		"byteOffset":0,
		"min":[0],
		"max":[24]
	},
	{
		"bufferView":15,
		"type":"VEC3",
		"componentType":5126,
		"count":25,
		"byteOffset":0,
		"min":[-0.4968101978302002,
		0.0,
		-0.4970815181732178],
		"max":[0.4968102276325226,
		0.5129151344299316,
		0.49803227186203005]
	}],
	"bufferViews":[{
		"buffer":0,
		"byteOffset":0,
		"byteLength":120,
		"target":34963
	},
	{
		"buffer":0,
		"byteOffset":120,
		"byteLength":144,
		"target":34962
	},
	{
		"buffer":1,
		"byteOffset":0,
		"byteLength":120,
		"target":34963
	},
	{
		"buffer":1,
		"byteOffset":120,
		"byteLength":144,
		"target":34962
	},
	{
		"buffer":2,
		"byteOffset":0,
		"byteLength":1824,
		"target":34963
	},
	{
		"buffer":2,
		"byteOffset":1824,
		"byteLength":1932,
		"target":34962
	},
	{
		"buffer":3,
		"byteOffset":0,
		"byteLength":534,
		"target":34963
	},
	{
		"buffer":3,
		"byteOffset":536,
		"byteLength":624,
		"target":34962
	},
	{
		"buffer":4,
		"byteOffset":0,
		"byteLength":816,
		"target":34963
	},
	{
		"buffer":4,
		"byteOffset":816,
		"byteLength":876,
		"target":34962
	},
	{
		"buffer":5,
		"byteOffset":0,
		"byteLength":528,
		"target":34963
	},
	{
		"buffer":5,
		"byteOffset":528,
		"byteLength":588,
		"target":34962
	},
	{
		"buffer":6,
		"byteOffset":0,
		"byteLength":516,
		"target":34963
	},
	{
		"buffer":6,
		"byteOffset":516,
		"byteLength":624,
		"target":34962
	},
	{
		"buffer":7,
		"byteOffset":0,
		"byteLength":240,
		"target":34963
	},
	{
		"buffer":7,
		"byteOffset":240,
		"byteLength":300,
		"target":34962
	}],
	"buffers":[{
		"uri":"data:application/octet-stream;base64,",
		"byteLength":264
	},
	{
		"uri":"data:application/octet-stream;base64,",
		"byteLength":264
	},
	{
		"uri":"data:application/octet-stream;base64,",
		"byteLength":3756
	},
	{
		"uri":"data:application/octet-stream;base64,",
		"byteLength":1160
	},
	{
		"uri":"data:application/octet-stream;base64,",
		"byteLength":1692
	},
	{
		"uri":"data:application/octet-stream;base64,",
		"byteLength":1116
	},
	{
		"uri":"data:application/octet-stream;base64,",
		"byteLength":1140
	},
	{
		"uri":"data:application/octet-stream;base64,",
		"byteLength":540
	}]
}