{
	"nodes":[{
		"translation":[0.0,
		5.0,
		0.0],
		"name":"tube100",
		"rotation":[0.0,
		0.0,
		0.0,
		-1.0],
		"scale":[1.0,
		1.0,
		1.0],
		"mesh":0
	}],
	"asset":{
		"version":"2.0",
		"generator":"Created using the official Cinema 4D glTF Exporter 1.000x284978"
	},
	"scenes":[{
		"nodes":[0]
	}],
	"meshes":[{
		"name":"tube100",
		"primitives":[{
			"attributes":{
				"POSITION":1,
				"TEXCOORD_0":2
			},
			"indices":0
		}]
	}],
	"accessors":[{
		"type":"SCALAR",
		"bufferView":0,
		"componentType":5123,
		"count":2376,
		"byteOffset":0,
		"min":[0],
		"max":[795]
	},
	{
		"type":"VEC3",
		"bufferView":1,
		"componentType":5126,
		"count":796,
		"byteOffset":0,
		"min":[-10.064851760864258,
		-5.034960746765137,
		-10.06865406036377],
		"max":[10.069921493530274,
		5.034960746765137,
		10.06865406036377]
	},
	{
		"type":"VEC2",
		"bufferView":1,
		"componentType":5126,
		"count":796,
		"byteOffset":12,
		"min":[0.0,
		0.0],
		"max":[1.0,
		1.0]
	}],
	"bufferViews":[{
		"buffer":0,
		"byteOffset":0,
		"byteLength":4752,
		"target":34963
	},
	{
		"buffer":0,
		"byteOffset":4752,
		"byteLength":15920,
		"target":34962,
		"byteStride":20
	}],
	"buffers":[{
		"uri":"data:application/octet-stream;base64,",
		"byteLength":20672
	}]
}