{
	"nodes":[{
		"name":"piramid",
		"translation":[0.5,
		0.0,
		0.5],
		"scale":[1.0,
		1.0,
		1.0],
		"rotation":[0.0,
		0.0,
		0.0,
		-1.0],
		"mesh":0
	},
	{
		"name":"cube",
		"translation":[0.5,
		0.0,
		0.5],
		"scale":[1.0,
		1.0,
		1.0],
		"rotation":[0.0,
		0.0,
		0.0,
		-1.0],
		"mesh":1
	},
	{
		"name":"capsule",
		"translation":[0.4994857609272003,
		0.0,
		0.5001710057258606],
		"scale":[1.0,
		1.0,
		1.0],
		"rotation":[0.0,
		0.0,
		0.0,
		-1.0],
		"mesh":2
	},
	{
		"name":"diamond",
		"translation":[0.5,
		0.0,
		0.5],
		"scale":[1.0,
		1.0,
		1.0],
		"rotation":[0.0,
		0.0,
		0.0,
		-1.0],
		"mesh":3
	},
	{
		"name":"brilliant",
		"translation":[0.49937164783477785,
		0.726767361164093,
		0.5000247359275818],
		"scale":[1.0,
		1.0,
		1.0],
		"rotation":[0.0,
		0.0,
		0.0,
		-1.0],
		"mesh":4
	},
	{
		"name":"emerald",
		"translation":[0.5,
		0.0,
		0.5],
		"scale":[1.0,
		1.0,
		1.0],
		"rotation":[0.0,
		0.0,
		0.0,
		-1.0],
		"mesh":5
	},
	{
		"name":"heart",
		"translation":[0.5,
		-0.00009781450353330001,
		0.5690111517906189],
		"scale":[1.0,
		1.0,
		1.0],
		"rotation":[0.0,
		0.0,
		0.0,
		-1.0],
		"mesh":6
	}],
	"asset":{
		"version":"2.0",
		"generator":"Created using the official Cinema 4D glTF Exporter 1.000x284978"
	},
	"scenes":[{
		"nodes":[0,
		1,
		2,
		3,
		4,
		5,
		6]
	}],
	"meshes":[{
		"name":"piramid",
		"primitives":[{
			"attributes":{
				"POSITION":1
			},
			"indices":0
		}]
	},
	{
		"name":"cube",
		"primitives":[{
			"attributes":{
				"POSITION":3
			},
			"indices":2
		}]
	},
	{
		"name":"capsule",
		"primitives":[{
			"attributes":{
				"POSITION":5
			},
			"indices":4
		}]
	},
	{
		"name":"diamond",
		"primitives":[{
			"attributes":{
				"POSITION":7
			},
			"indices":6
		}]
	},
	{
		"name":"brilliant",
		"primitives":[{
			"attributes":{
				"POSITION":9
			},
			"indices":8
		}]
	},
	{
		"name":"emerald",
		"primitives":[{
			"attributes":{
				"POSITION":11
			},
			"indices":10
		}]
	},
	{
		"name":"heart",
		"primitives":[{
			"attributes":{
				"POSITION":13
			},
			"indices":12
		}]
	}],
	"accessors":[{
		"bufferView":0,
		"type":"SCALAR",
		"componentType":5123,
		"count":60,
		"byteOffset":0,
		"min":[0],
		"max":[11]
	},
	{
		"bufferView":1,
		"type":"VEC3",
		"componentType":5126,
		"count":12,
		"byteOffset":0,
		"min":[-0.5,
		-0.009999999776482582,
		-0.5],
		"max":[0.5,
		0.10000000149011612,
		0.5]
	},
	{
		"bufferView":2,
		"type":"SCALAR",
		"componentType":5123,
		"count":60,
		"byteOffset":0,
		"min":[0],
		"max":[11]
	},
	{
		"bufferView":3,
		"type":"VEC3",
		"componentType":5126,
		"count":12,
		"byteOffset":0,
		"min":[-0.5,
		-0.009999999776482582,
		-0.5],
		"max":[0.5,
		0.10000000149011612,
		0.5]
	},
	{
		"bufferView":4,
		"type":"SCALAR",
		"componentType":5123,
		"count":912,
		"byteOffset":0,
		"min":[0],
		"max":[160]
	},
	{
		"bufferView":5,
		"type":"VEC3",
		"componentType":5126,
		"count":161,
		"byteOffset":0,
		"min":[-0.5,
		0.001684233546257019,
		-0.2751217484474182],
		"max":[0.5,
		0.5433884263038635,
		0.2751217484474182]
	},
	{
		"bufferView":6,
		"type":"SCALAR",
		"componentType":5123,
		"count":291,
		"byteOffset":0,
		"min":[0],
		"max":[52]
	},
	{
		"bufferView":7,
		"type":"VEC3",
		"componentType":5126,
		"count":53,
		"byteOffset":0,
		"min":[-0.49721217155456545,
		9.748764770163392e-16,
		-0.27227824926376345],
		"max":[0.49721217155456545,
		0.6424803733825684,
		0.27227824926376345]
	},
	{
		"bufferView":8,
		"type":"SCALAR",
		"componentType":5123,
		"count":432,
		"byteOffset":0,
		"min":[0],
		"max":[73]
	},
	{
		"bufferView":9,
		"type":"VEC3",
		"componentType":5126,
		"count":74,
		"byteOffset":0,
		"min":[-0.4997558295726776,
		-0.7231926321983337,
		-0.27372100949287417],
		"max":[0.49998408555984499,
		-0.10239624232053757,
		0.2740136981010437]
	},
	{
		"bufferView":10,
		"type":"SCALAR",
		"componentType":5123,
		"count":342,
		"byteOffset":0,
		"min":[0],
		"max":[58]
	},
	{
		"bufferView":11,
		"type":"VEC3",
		"componentType":5126,
		"count":59,
		"byteOffset":0,
		"min":[-0.4968101978302002,
		-4.2746668782456256e-7,
		-0.4970815181732178],
		"max":[0.4968102276325226,
		0.4604782462120056,
		0.49803227186203005]
	},
	{
		"bufferView":12,
		"type":"SCALAR",
		"componentType":5123,
		"count":360,
		"byteOffset":0,
		"min":[0],
		"max":[61]
	},
	{
		"bufferView":13,
		"type":"VEC3",
		"componentType":5126,
		"count":62,
		"byteOffset":0,
		"min":[-0.49710869789123537,
		-3.3306690738754698e-16,
		-0.3506472110748291],
		"max":[0.49710869789123537,
		0.6351630091667175,
		0.20891299843788148]
	}],
	"bufferViews":[{
		"buffer":0,
		"byteOffset":0,
		"target":34963,
		"byteLength":120
	},
	{
		"buffer":0,
		"byteOffset":120,
		"target":34962,
		"byteLength":144
	},
	{
		"buffer":1,
		"byteOffset":0,
		"target":34963,
		"byteLength":120
	},
	{
		"buffer":1,
		"byteOffset":120,
		"target":34962,
		"byteLength":144
	},
	{
		"buffer":2,
		"byteOffset":0,
		"target":34963,
		"byteLength":1824
	},
	{
		"buffer":2,
		"byteOffset":1824,
		"target":34962,
		"byteLength":1932
	},
	{
		"buffer":3,
		"byteOffset":0,
		"target":34963,
		"byteLength":582
	},
	{
		"buffer":3,
		"byteOffset":584,
		"target":34962,
		"byteLength":636
	},
	{
		"buffer":4,
		"byteOffset":0,
		"target":34963,
		"byteLength":864
	},
	{
		"buffer":4,
		"byteOffset":864,
		"target":34962,
		"byteLength":888
	},
	{
		"buffer":5,
		"byteOffset":0,
		"target":34963,
		"byteLength":684
	},
	{
		"buffer":5,
		"byteOffset":684,
		"target":34962,
		"byteLength":708
	},
	{
		"buffer":6,
		"byteOffset":0,
		"target":34963,
		"byteLength":720
	},
	{
		"buffer":6,
		"byteOffset":720,
		"target":34962,
		"byteLength":744
	}],
	"buffers":[{
		"uri":"data:application/octet-stream;base64,",
		"byteLength":264
	},
	{
		"uri":"data:application/octet-stream;base64,",
		"byteLength":264
	},
	{
		"uri":"data:application/octet-stream;base64,",
		"byteLength":3756
	},
	{
		"uri":"data:application/octet-stream;base64,",
		"byteLength":1220
	},
	{
		"uri":"data:application/octet-stream;base64,",
		"byteLength":1752
	},
	{
		"uri":"data:application/octet-stream;base64,",
		"byteLength":1392
	},
	{
		"uri":"data:application/octet-stream;base64,",
		"byteLength":1464
	}]
}