<svg xmlns="http://www.w3.org/2000/svg" preserveAspectRatio="none"  viewBox="0 0 500 30"><defs><style>.cls-1{fill:none;stroke:#818181;stroke-miterlimit:10;}</style></defs><line class="cls-1" x1="494.5" y1="30" x2="494.5"/><line class="cls-1" x1="489.51" y1="30" x2="489.51"/><line class="cls-1" x1="484.52" y1="30" x2="484.52"/><line class="cls-1" x1="479.53" y1="30" x2="479.53"/><line class="cls-1" x1="474.54" y1="30" x2="474.54"/><line class="cls-1" x1="469.55" y1="30" x2="469.55"/><line class="cls-1" x1="464.561" y1="30" x2="464.561"/><line class="cls-1" x1="459.571" y1="30" x2="459.571"/><line class="cls-1" x1="454.581" y1="30" x2="454.581"/><line class="cls-1" x1="449.591" y1="30" x2="449.591"/><line class="cls-1" x1="444.601" y1="30" x2="444.601"/><line class="cls-1" x1="439.611" y1="30" x2="439.611"/><line class="cls-1" x1="434.621" y1="30" x2="434.621"/><line class="cls-1" x1="429.631" y1="30" x2="429.631"/><line class="cls-1" x1="424.641" y1="30" x2="424.641"/><line class="cls-1" x1="419.651" y1="30" x2="419.651"/><line class="cls-1" x1="414.662" y1="30" x2="414.662"/><line class="cls-1" x1="409.672" y1="30" x2="409.672"/><line class="cls-1" x1="404.682" y1="30" x2="404.682"/><line class="cls-1" x1="399.692" y1="30" x2="399.692"/><line class="cls-1" x1="394.702" y1="30" x2="394.702"/><line class="cls-1" x1="389.712" y1="30" x2="389.712"/><line class="cls-1" x1="384.722" y1="30" x2="384.722"/><line class="cls-1" x1="379.732" y1="30" x2="379.732"/><line class="cls-1" x1="374.742" y1="30" x2="374.742"/><line class="cls-1" x1="369.752" y1="30" x2="369.752"/><line class="cls-1" x1="364.763" y1="30" x2="364.763"/><line class="cls-1" x1="359.773" y1="30" x2="359.773"/><line class="cls-1" x1="354.783" y1="30" x2="354.783"/><line class="cls-1" x1="349.793" y1="30" x2="349.793"/><line class="cls-1" x1="344.803" y1="30" x2="344.803"/><line class="cls-1" x1="339.813" y1="30" x2="339.813"/><line class="cls-1" x1="334.823" y1="30" x2="334.823"/><line class="cls-1" x1="329.833" y1="30" x2="329.833"/><line class="cls-1" x1="324.843" y1="30" x2="324.843"/><line class="cls-1" x1="319.853" y1="30" x2="319.853"/><line class="cls-1" x1="314.864" y1="30" x2="314.864"/><line class="cls-1" x1="309.874" y1="30" x2="309.874"/><line class="cls-1" x1="304.884" y1="30" x2="304.884"/><line class="cls-1" x1="299.894" y1="30" x2="299.894"/><line class="cls-1" x1="294.904" y1="30" x2="294.904"/><line class="cls-1" x1="289.914" y1="30" x2="289.914"/><line class="cls-1" x1="284.924" y1="30" x2="284.924"/><line class="cls-1" x1="279.934" y1="30" x2="279.934"/><line class="cls-1" x1="274.944" y1="30" x2="274.944"/><line class="cls-1" x1="269.954" y1="30" x2="269.954"/><line class="cls-1" x1="264.965" y1="30" x2="264.965"/><line class="cls-1" x1="259.975" y1="30" x2="259.975"/><line class="cls-1" x1="254.985" y1="30" x2="254.985"/><line class="cls-1" x1="249.995" y1="30" x2="249.995"/><line class="cls-1" x1="245.005" y1="30" x2="245.005"/><line class="cls-1" x1="240.015" y1="30" x2="240.015"/><line class="cls-1" x1="235.025" y1="30" x2="235.025"/><line class="cls-1" x1="230.035" y1="30" x2="230.035"/><line class="cls-1" x1="225.045" y1="30" x2="225.045"/><line class="cls-1" x1="220.056" y1="30" x2="220.056"/><line class="cls-1" x1="215.066" y1="30" x2="215.066"/><line class="cls-1" x1="210.076" y1="30" x2="210.076"/><line class="cls-1" x1="205.086" y1="30" x2="205.086"/><line class="cls-1" x1="200.096" y1="30" x2="200.096"/><line class="cls-1" x1="195.106" y1="30" x2="195.106"/><line class="cls-1" x1="190.116" y1="30" x2="190.116"/><line class="cls-1" x1="185.126" y1="30" x2="185.126"/><line class="cls-1" x1="180.136" y1="30" x2="180.136"/><line class="cls-1" x1="175.146" y1="30" x2="175.146"/><line class="cls-1" x1="170.157" y1="30" x2="170.157"/><line class="cls-1" x1="165.167" y1="30" x2="165.167"/><line class="cls-1" x1="160.177" y1="30" x2="160.177"/><line class="cls-1" x1="155.187" y1="30" x2="155.187"/><line class="cls-1" x1="150.197" y1="30" x2="150.197"/><line class="cls-1" x1="145.207" y1="30" x2="145.207"/><line class="cls-1" x1="140.217" y1="30" x2="140.217"/><line class="cls-1" x1="135.227" y1="30" x2="135.227"/><line class="cls-1" x1="130.237" y1="30" x2="130.237"/><line class="cls-1" x1="125.247" y1="30" x2="125.247"/><line class="cls-1" x1="120.258" y1="30" x2="120.258"/><line class="cls-1" x1="115.268" y1="30" x2="115.268"/><line class="cls-1" x1="110.278" y1="30" x2="110.278"/><line class="cls-1" x1="105.288" y1="30" x2="105.288"/><line class="cls-1" x1="100.298" y1="30" x2="100.298"/><line class="cls-1" x1="95.308" y1="30" x2="95.308"/><line class="cls-1" x1="90.318" y1="30" x2="90.318"/><line class="cls-1" x1="85.328" y1="30" x2="85.328"/><line class="cls-1" x1="80.338" y1="30" x2="80.338"/><line class="cls-1" x1="75.348" y1="30" x2="75.348"/><line class="cls-1" x1="70.359" y1="30" x2="70.359"/><line class="cls-1" x1="65.369" y1="30" x2="65.369"/><line class="cls-1" x1="60.379" y1="30" x2="60.379"/><line class="cls-1" x1="55.389" y1="30" x2="55.389"/><line class="cls-1" x1="50.399" y1="30" x2="50.399"/><line class="cls-1" x1="45.409" y1="30" x2="45.409"/><line class="cls-1" x1="40.419" y1="30" x2="40.419"/><line class="cls-1" x1="35.429" y1="30" x2="35.429"/><line class="cls-1" x1="30.439" y1="30" x2="30.439"/><line class="cls-1" x1="25.449" y1="30" x2="25.449"/><line class="cls-1" x1="20.46" y1="30" x2="20.46"/><line class="cls-1" x1="15.47" y1="30" x2="15.47"/><line class="cls-1" x1="10.48" y1="30" x2="10.48"/><line class="cls-1" x1="5.49" y1="30" x2="5.49"/><line class="cls-1" x1=".5" y1="30" x2=".5"/></svg>