{
	"nodes":[{
		"name":"Null.1",
		"translation":[0.0,
		0.40646639466285708,
		2.488888855859779e-17],
		"rotation":[0.7071067690849304,
		0.0,
		0.0,
		-0.7071067690849304],
		"scale":[1.0,
		1.0,
		1.0],
		"children":[1,
		2,
		3,
		4,
		5,
		6,
		7,
		8,
		9,
		10,
		11,
		12,
		13,
		14,
		15,
		16,
		17,
		18,
		19,
		20,
		21,
		22,
		23,
		24,
		25,
		26]
	},
	{
		"name":"hashtags",
		"mesh":0
	},
	{
		"name":"creators",
		"mesh":1
	},
	{
		"name":"adds",
		"mesh":2
	},
	{
		"name":"drags",
		"mesh":3
	},
	{
		"name":"searches",
		"mesh":4
	},
	{
		"name":"shapeType_cube",
		"mesh":5
	},
	{
		"name":"shapeType_piramid",
		"mesh":6
	},
	{
		"name":"shapeType_emerald",
		"mesh":7
	},
	{
		"name":"shapeType_capsule",
		"mesh":8
	},
	{
		"name":"shapeType_heart",
		"mesh":9
	},
	{
		"name":"shapeType_diamond",
		"mesh":10
	},
	{
		"name":"shapeType_flower",
		"mesh":11
	},
	{
		"name":"shapeType_skull",
		"mesh":12
	},
	{
		"name":"info",
		"mesh":13
	},
	{
		"name":"shapeType_rose",
		"mesh":14
	},
	{
		"name":"categories",
		"mesh":15
	},
	{
		"name":"randomTags",
		"mesh":16
	},
	{
		"name":"visType_BigSingleShape",
		"mesh":17
	},
	{
		"name":"visType_DayBoxes",
		"mesh":18
	},
	{
		"name":"visType_CreatorHeightmap",
		"mesh":19
	},
	{
		"name":"edits",
		"mesh":20
	},
	{
		"name":"visType_DayHeightMap",
		"mesh":21
	},
	{
		"name":"visType_DiamondsGrid",
		"mesh":22
	},
	{
		"name":"deletes",
		"mesh":23
	},
	{
		"name":"visType_DiamondsRing",
		"mesh":24
	},
	{
		"name":"swatchesGenerated",
		"mesh":25
	}],
	"asset":{
		"version":"2.0",
		"generator":"Created using the official Cinema 4D glTF Exporter 1.000x284978"
	},
	"scenes":[{
		"nodes":[0]
	}],
	"meshes":[{
		"name":"hashtags",
		"primitives":[{
			"attributes":{
				"POSITION":1
			},
			"indices":0
		}]
	},
	{
		"name":"creators",
		"primitives":[{
			"attributes":{
				"POSITION":3
			},
			"indices":2
		}]
	},
	{
		"name":"adds",
		"primitives":[{
			"attributes":{
				"POSITION":5
			},
			"indices":4
		}]
	},
	{
		"name":"drags",
		"primitives":[{
			"attributes":{
				"POSITION":7
			},
			"indices":6
		}]
	},
	{
		"name":"searches",
		"primitives":[{
			"attributes":{
				"POSITION":9
			},
			"indices":8
		}]
	},
	{
		"name":"shapeType_cube",
		"primitives":[{
			"attributes":{
				"POSITION":11
			},
			"indices":10
		}]
	},
	{
		"name":"shapeType_piramid",
		"primitives":[{
			"attributes":{
				"POSITION":13
			},
			"indices":12
		}]
	},
	{
		"name":"shapeType_emerald",
		"primitives":[{
			"attributes":{
				"POSITION":15
			},
			"indices":14
		}]
	},
	{
		"name":"shapeType_capsule",
		"primitives":[{
			"attributes":{
				"POSITION":17
			},
			"indices":16
		}]
	},
	{
		"name":"shapeType_heart",
		"primitives":[{
			"attributes":{
				"POSITION":19
			},
			"indices":18
		}]
	},
	{
		"name":"shapeType_diamond",
		"primitives":[{
			"attributes":{
				"POSITION":21
			},
			"indices":20
		}]
	},
	{
		"name":"shapeType_flower",
		"primitives":[{
			"attributes":{
				"POSITION":23
			},
			"indices":22
		}]
	},
	{
		"name":"shapeType_skull",
		"primitives":[{
			"attributes":{
				"POSITION":25
			},
			"indices":24
		}]
	},
	{
		"name":"info",
		"primitives":[{
			"attributes":{
				"POSITION":27
			},
			"indices":26
		}]
	},
	{
		"name":"shapeType_rose",
		"primitives":[{
			"attributes":{
				"POSITION":29
			},
			"indices":28
		}]
	},
	{
		"name":"categories",
		"primitives":[{
			"attributes":{
				"POSITION":31
			},
			"indices":30
		}]
	},
	{
		"name":"randomTags",
		"primitives":[{
			"attributes":{
				"POSITION":33
			},
			"indices":32
		}]
	},
	{
		"name":"visType_BigSingleShape",
		"primitives":[{
			"attributes":{
				"POSITION":35
			},
			"indices":34
		}]
	},
	{
		"name":"visType_DayBoxes",
		"primitives":[{
			"attributes":{
				"POSITION":37
			},
			"indices":36
		}]
	},
	{
		"name":"visType_CreatorHeightmap",
		"primitives":[{
			"attributes":{
				"POSITION":39
			},
			"indices":38
		}]
	},
	{
		"name":"edits",
		"primitives":[{
			"attributes":{
				"POSITION":41
			},
			"indices":40
		}]
	},
	{
		"name":"visType_DayHeightMap",
		"primitives":[{
			"attributes":{
				"POSITION":43
			},
			"indices":42
		}]
	},
	{
		"name":"visType_DiamondsGrid",
		"primitives":[{
			"attributes":{
				"POSITION":45
			},
			"indices":44
		}]
	},
	{
		"name":"deletes",
		"primitives":[{
			"attributes":{
				"POSITION":47
			},
			"indices":46
		}]
	},
	{
		"name":"visType_DiamondsRing",
		"primitives":[{
			"attributes":{
				"POSITION":49
			},
			"indices":48
		}]
	},
	{
		"name":"swatchesGenerated",
		"primitives":[{
			"attributes":{
				"POSITION":51
			},
			"indices":50
		}]
	}],
	"accessors":[{
		"bufferView":0,
		"count":384,
		"type":"SCALAR",
		"componentType":5123,
		"byteOffset":0,
		"min":[0],
		"max":[63]
	},
	{
		"bufferView":1,
		"count":64,
		"type":"VEC3",
		"componentType":5126,
		"byteOffset":0,
		"min":[-1.0905966758728028,
		-1.149741530418396,
		-0.4000000059604645],
		"max":[1.0905966758728028,
		1.149741530418396,
		0.0]
	},
	{
		"bufferView":2,
		"count":3096,
		"type":"SCALAR",
		"componentType":5123,
		"byteOffset":0,
		"min":[0],
		"max":[517]
	},
	{
		"bufferView":3,
		"count":518,
		"type":"VEC3",
		"componentType":5126,
		"byteOffset":0,
		"min":[-1.2188434600830079,
		-1.3196040391921998,
		-0.4000000059604645],
		"max":[1.2156282663345338,
		1.5378642082214356,
		0.0]
	},
	{
		"bufferView":4,
		"count":3444,
		"type":"SCALAR",
		"componentType":5123,
		"byteOffset":0,
		"min":[0],
		"max":[575]
	},
	{
		"bufferView":5,
		"count":576,
		"type":"VEC3",
		"componentType":5126,
		"byteOffset":0,
		"min":[-1.219304084777832,
		-1.2192882299423218,
		-0.4000000059604645],
		"max":[1.219304084777832,
		1.2192882299423218,
		0.0]
	},
	{
		"bufferView":6,
		"count":5712,
		"type":"SCALAR",
		"componentType":5123,
		"byteOffset":0,
		"min":[0],
		"max":[951]
	},
	{
		"bufferView":7,
		"count":952,
		"type":"VEC3",
		"componentType":5126,
		"byteOffset":0,
		"min":[-1.3382678031921387,
		-1.4588595628738404,
		-0.4000000059604645],
		"max":[1.3382678031921387,
		1.4588595628738404,
		0.0]
	},
	{
		"bufferView":8,
		"count":2040,
		"type":"SCALAR",
		"componentType":5123,
		"byteOffset":0,
		"min":[0],
		"max":[339]
	},
	{
		"bufferView":9,
		"count":340,
		"type":"VEC3",
		"componentType":5126,
		"byteOffset":0,
		"min":[-1.3312774896621705,
		-1.4322705268859864,
		-0.4000000059604645],
		"max":[1.3850234746932984,
		1.4322705268859864,
		1.1102230246251566e-16]
	},
	{
		"bufferView":10,
		"count":96,
		"type":"SCALAR",
		"componentType":5123,
		"byteOffset":0,
		"min":[0],
		"max":[15]
	},
	{
		"bufferView":11,
		"count":16,
		"type":"VEC3",
		"componentType":5126,
		"byteOffset":0,
		"min":[-1.2286244630813599,
		-1.2286244630813599,
		-0.4000000059604645],
		"max":[1.2286244630813599,
		1.2286244630813599,
		0.0]
	},
	{
		"bufferView":12,
		"count":72,
		"type":"SCALAR",
		"componentType":5123,
		"byteOffset":0,
		"min":[0],
		"max":[11]
	},
	{
		"bufferView":13,
		"count":12,
		"type":"VEC3",
		"componentType":5126,
		"byteOffset":0,
		"min":[-1.3978132009506226,
		-1.3382377624511719,
		-0.4000000059604645],
		"max":[1.3978132009506226,
		1.3382377624511719,
		0.0]
	},
	{
		"bufferView":14,
		"count":372,
		"type":"SCALAR",
		"componentType":5123,
		"byteOffset":0,
		"min":[0],
		"max":[51]
	},
	{
		"bufferView":15,
		"count":52,
		"type":"VEC3",
		"componentType":5126,
		"byteOffset":0,
		"min":[-1.587499976158142,
		-1.3407883644104005,
		-0.4000000059604645],
		"max":[1.587499976158142,
		1.3407883644104005,
		1.3877787807814457e-15]
	},
	{
		"bufferView":16,
		"count":888,
		"type":"SCALAR",
		"componentType":5123,
		"byteOffset":0,
		"min":[0],
		"max":[147]
	},
	{
		"bufferView":17,
		"count":148,
		"type":"VEC3",
		"componentType":5126,
		"byteOffset":0,
		"min":[-1.2758737802505494,
		-1.2758914232254029,
		-0.4000000059604645],
		"max":[1.2758737802505494,
		1.2758914232254029,
		0.0]
	},
	{
		"bufferView":18,
		"count":1908,
		"type":"SCALAR",
		"componentType":5123,
		"byteOffset":0,
		"min":[0],
		"max":[317]
	},
	{
		"bufferView":19,
		"count":318,
		"type":"VEC3",
		"componentType":5126,
		"byteOffset":0,
		"min":[-1.3837792873382569,
		-1.2951654195785523,
		-0.4000000059604645],
		"max":[1.3837770223617554,
		1.302895188331604,
		0.0]
	},
	{
		"bufferView":20,
		"count":432,
		"type":"SCALAR",
		"componentType":5123,
		"byteOffset":0,
		"min":[0],
		"max":[59]
	},
	{
		"bufferView":21,
		"count":60,
		"type":"VEC3",
		"componentType":5126,
		"byteOffset":0,
		"min":[-1.572951078414917,
		-1.4154577255249024,
		-0.4000000059604645],
		"max":[1.572951078414917,
		1.4154577255249024,
		5.551115123125783e-17]
	},
	{
		"bufferView":22,
		"count":9324,
		"type":"SCALAR",
		"componentType":5123,
		"byteOffset":0,
		"min":[0],
		"max":[1537]
	},
	{
		"bufferView":23,
		"count":1538,
		"type":"VEC3",
		"componentType":5126,
		"byteOffset":0,
		"min":[-1.4695751667022706,
		-1.469573974609375,
		-0.4000000059604645],
		"max":[1.4695751667022706,
		1.469573974609375,
		5.551115123125783e-17]
	},
	{
		"bufferView":24,
		"count":2064,
		"type":"SCALAR",
		"componentType":5123,
		"byteOffset":0,
		"min":[0],
		"max":[351]
	},
	{
		"bufferView":25,
		"count":352,
		"type":"VEC3",
		"componentType":5126,
		"byteOffset":0,
		"min":[-1.1783608198165894,
		-1.3814319372177125,
		-0.4000000059604645],
		"max":[1.1783770322799683,
		1.3828554153442383,
		1.2212453270876722e-15]
	},
	{
		"bufferView":26,
		"count":3324,
		"type":"SCALAR",
		"componentType":5123,
		"byteOffset":0,
		"min":[0],
		"max":[557]
	},
	{
		"bufferView":27,
		"count":558,
		"type":"VEC3",
		"componentType":5126,
		"byteOffset":0,
		"min":[-1.394556999206543,
		-1.3945587873458863,
		-0.4000000059604645],
		"max":[1.394556999206543,
		1.3945587873458863,
		0.0]
	},
	{
		"bufferView":28,
		"count":2808,
		"type":"SCALAR",
		"componentType":5123,
		"byteOffset":0,
		"min":[0],
		"max":[461]
	},
	{
		"bufferView":29,
		"count":462,
		"type":"VEC3",
		"componentType":5126,
		"byteOffset":0,
		"min":[-1.1538655757904053,
		-1.3666346073150635,
		-0.4000000059604645],
		"max":[1.1538655757904053,
		1.369959831237793,
		-1.6653345369377349e-16]
	},
	{
		"bufferView":30,
		"count":3312,
		"type":"SCALAR",
		"componentType":5123,
		"byteOffset":0,
		"min":[0],
		"max":[549]
	},
	{
		"bufferView":31,
		"count":550,
		"type":"VEC3",
		"componentType":5126,
		"byteOffset":0,
		"min":[-1.3392060995101929,
		-1.186128854751587,
		-0.4000000059604645],
		"max":[1.3391849994659424,
		1.1863586902618409,
		0.0]
	},
	{
		"bufferView":32,
		"count":3468,
		"type":"SCALAR",
		"componentType":5123,
		"byteOffset":0,
		"min":[0],
		"max":[581]
	},
	{
		"bufferView":33,
		"count":582,
		"type":"VEC3",
		"componentType":5126,
		"byteOffset":0,
		"min":[-1.3390051126480103,
		-1.2255853414535523,
		-0.4000000059604645],
		"max":[1.3390051126480103,
		1.235146164894104,
		-5.551115123125783e-17]
	},
	{
		"bufferView":34,
		"count":4776,
		"type":"SCALAR",
		"componentType":5123,
		"byteOffset":0,
		"min":[0],
		"max":[787]
	},
	{
		"bufferView":35,
		"count":788,
		"type":"VEC3",
		"componentType":5126,
		"byteOffset":0,
		"min":[-1.5873289108276368,
		-1.3082058429718018,
		-0.4000000059604645],
		"max":[1.5873289108276368,
		1.3082058429718018,
		-1.1102230246251566e-16]
	},
	{
		"bufferView":36,
		"count":5496,
		"type":"SCALAR",
		"componentType":5123,
		"byteOffset":0,
		"min":[0],
		"max":[899]
	},
	{
		"bufferView":37,
		"count":900,
		"type":"VEC3",
		"componentType":5126,
		"byteOffset":0,
		"min":[-1.2641263008117676,
		-1.3791406154632569,
		-0.4000000059604645],
		"max":[1.2641263008117676,
		1.3791406154632569,
		-1.6653345369377349e-16]
	},
	{
		"bufferView":38,
		"count":960,
		"type":"SCALAR",
		"componentType":5123,
		"byteOffset":0,
		"min":[0],
		"max":[143]
	},
	{
		"bufferView":39,
		"count":144,
		"type":"VEC3",
		"componentType":5126,
		"byteOffset":0,
		"min":[-1.3406754732131959,
		-1.4463034868240357,
		-0.4000000059604645],
		"max":[1.3406754732131959,
		1.4463034868240357,
		0.0]
	},
	{
		"bufferView":40,
		"count":1512,
		"type":"SCALAR",
		"componentType":5123,
		"byteOffset":0,
		"min":[0],
		"max":[251]
	},
	{
		"bufferView":41,
		"count":252,
		"type":"VEC3",
		"componentType":5126,
		"byteOffset":0,
		"min":[-1.4594292640686036,
		-0.8961032032966614,
		-0.4000000059604645],
		"max":[1.2641111612319947,
		1.7455250024795533,
		0.0]
	},
	{
		"bufferView":42,
		"count":2160,
		"type":"SCALAR",
		"componentType":5123,
		"byteOffset":0,
		"min":[0],
		"max":[329]
	},
	{
		"bufferView":43,
		"count":330,
		"type":"VEC3",
		"componentType":5126,
		"byteOffset":0,
		"min":[-1.3998632431030274,
		-1.3626041412353516,
		-0.4000000059604645],
		"max":[1.3997851610183716,
		1.3626041412353516,
		0.0]
	},
	{
		"bufferView":44,
		"count":1920,
		"type":"SCALAR",
		"componentType":5123,
		"byteOffset":0,
		"min":[0],
		"max":[271]
	},
	{
		"bufferView":45,
		"count":272,
		"type":"VEC3",
		"componentType":5126,
		"byteOffset":0,
		"min":[-1.2758914232254029,
		-1.2758914232254029,
		-0.4000000059604645],
		"max":[1.2758914232254029,
		1.2758914232254029,
		0.0]
	},
	{
		"bufferView":46,
		"count":4284,
		"type":"SCALAR",
		"componentType":5123,
		"byteOffset":0,
		"min":[0],
		"max":[715]
	},
	{
		"bufferView":47,
		"count":716,
		"type":"VEC3",
		"componentType":5126,
		"byteOffset":0,
		"min":[-1.3023496866226197,
		-1.3855135440826417,
		-0.4000000059604645],
		"max":[1.3023496866226197,
		1.3855135440826417,
		0.0]
	},
	{
		"bufferView":48,
		"count":22416,
		"type":"SCALAR",
		"componentType":5123,
		"byteOffset":0,
		"min":[0],
		"max":[3695]
	},
	{
		"bufferView":49,
		"count":3696,
		"type":"VEC3",
		"componentType":5126,
		"byteOffset":0,
		"min":[-1.083378791809082,
		-1.4420814514160157,
		-0.4000000059604645],
		"max":[1.083378791809082,
		1.4420814514160157,
		7.771561172376096e-16]
	},
	{
		"bufferView":50,
		"count":5760,
		"type":"SCALAR",
		"componentType":5123,
		"byteOffset":0,
		"min":[0],
		"max":[967]
	},
	{
		"bufferView":51,
		"count":968,
		"type":"VEC3",
		"componentType":5126,
		"byteOffset":0,
		"min":[-1.481123685836792,
		-1.2425944805145264,
		-0.4000000059604645],
		"max":[1.481123685836792,
		1.2429174184799195,
		0.0]
	}],
	"bufferViews":[{
		"buffer":0,
		"byteOffset":0,
		"byteLength":768,
		"target":34963
	},
	{
		"buffer":0,
		"byteOffset":768,
		"byteLength":768,
		"target":34962
	},
	{
		"buffer":1,
		"byteOffset":0,
		"byteLength":6192,
		"target":34963
	},
	{
		"buffer":1,
		"byteOffset":6192,
		"byteLength":6216,
		"target":34962
	},
	{
		"buffer":2,
		"byteOffset":0,
		"byteLength":6888,
		"target":34963
	},
	{
		"buffer":2,
		"byteOffset":6888,
		"byteLength":6912,
		"target":34962
	},
	{
		"buffer":3,
		"byteOffset":0,
		"byteLength":11424,
		"target":34963
	},
	{
		"buffer":3,
		"byteOffset":11424,
		"byteLength":11424,
		"target":34962
	},
	{
		"buffer":4,
		"byteOffset":0,
		"byteLength":4080,
		"target":34963
	},
	{
		"buffer":4,
		"byteOffset":4080,
		"byteLength":4080,
		"target":34962
	},
	{
		"buffer":5,
		"byteOffset":0,
		"byteLength":192,
		"target":34963
	},
	{
		"buffer":5,
		"byteOffset":192,
		"byteLength":192,
		"target":34962
	},
	{
		"buffer":6,
		"byteOffset":0,
		"byteLength":144,
		"target":34963
	},
	{
		"buffer":6,
		"byteOffset":144,
		"byteLength":144,
		"target":34962
	},
	{
		"buffer":7,
		"byteOffset":0,
		"byteLength":744,
		"target":34963
	},
	{
		"buffer":7,
		"byteOffset":744,
		"byteLength":624,
		"target":34962
	},
	{
		"buffer":8,
		"byteOffset":0,
		"byteLength":1776,
		"target":34963
	},
	{
		"buffer":8,
		"byteOffset":1776,
		"byteLength":1776,
		"target":34962
	},
	{
		"buffer":9,
		"byteOffset":0,
		"byteLength":3816,
		"target":34963
	},
	{
		"buffer":9,
		"byteOffset":3816,
		"byteLength":3816,
		"target":34962
	},
	{
		"buffer":10,
		"byteOffset":0,
		"byteLength":864,
		"target":34963
	},
	{
		"buffer":10,
		"byteOffset":864,
		"byteLength":720,
		"target":34962
	},
	{
		"buffer":11,
		"byteOffset":0,
		"byteLength":18648,
		"target":34963
	},
	{
		"buffer":11,
		"byteOffset":18648,
		"byteLength":18456,
		"target":34962
	},
	{
		"buffer":12,
		"byteOffset":0,
		"byteLength":4128,
		"target":34963
	},
	{
		"buffer":12,
		"byteOffset":4128,
		"byteLength":4224,
		"target":34962
	},
	{
		"buffer":13,
		"byteOffset":0,
		"byteLength":6648,
		"target":34963
	},
	{
		"buffer":13,
		"byteOffset":6648,
		"byteLength":6696,
		"target":34962
	},
	{
		"buffer":14,
		"byteOffset":0,
		"byteLength":5616,
		"target":34963
	},
	{
		"buffer":14,
		"byteOffset":5616,
		"byteLength":5544,
		"target":34962
	},
	{
		"buffer":15,
		"byteOffset":0,
		"byteLength":6624,
		"target":34963
	},
	{
		"buffer":15,
		"byteOffset":6624,
		"byteLength":6600,
		"target":34962
	},
	{
		"buffer":16,
		"byteOffset":0,
		"byteLength":6936,
		"target":34963
	},
	{
		"buffer":16,
		"byteOffset":6936,
		"byteLength":6984,
		"target":34962
	},
	{
		"buffer":17,
		"byteOffset":0,
		"byteLength":9552,
		"target":34963
	},
	{
		"buffer":17,
		"byteOffset":9552,
		"byteLength":9456,
		"target":34962
	},
	{
		"buffer":18,
		"byteOffset":0,
		"byteLength":10992,
		"target":34963
	},
	{
		"buffer":18,
		"byteOffset":10992,
		"byteLength":10800,
		"target":34962
	},
	{
		"buffer":19,
		"byteOffset":0,
		"byteLength":1920,
		"target":34963
	},
	{
		"buffer":19,
		"byteOffset":1920,
		"byteLength":1728,
		"target":34962
	},
	{
		"buffer":20,
		"byteOffset":0,
		"byteLength":3024,
		"target":34963
	},
	{
		"buffer":20,
		"byteOffset":3024,
		"byteLength":3024,
		"target":34962
	},
	{
		"buffer":21,
		"byteOffset":0,
		"byteLength":4320,
		"target":34963
	},
	{
		"buffer":21,
		"byteOffset":4320,
		"byteLength":3960,
		"target":34962
	},
	{
		"buffer":22,
		"byteOffset":0,
		"byteLength":3840,
		"target":34963
	},
	{
		"buffer":22,
		"byteOffset":3840,
		"byteLength":3264,
		"target":34962
	},
	{
		"buffer":23,
		"byteOffset":0,
		"byteLength":8568,
		"target":34963
	},
	{
		"buffer":23,
		"byteOffset":8568,
		"byteLength":8592,
		"target":34962
	},
	{
		"buffer":24,
		"byteOffset":0,
		"byteLength":44832,
		"target":34963
	},
	{
		"buffer":24,
		"byteOffset":44832,
		"byteLength":44352,
		"target":34962
	},
	{
		"buffer":25,
		"byteOffset":0,
		"byteLength":11520,
		"target":34963
	},
	{
		"buffer":25,
		"byteOffset":11520,
		"byteLength":11616,
		"target":34962
	}],
	"buffers":[{
		"uri":"data:application/octet-stream;base64,",
		"byteLength":1536
	},
	{
		"uri":"data:application/octet-stream;base64,",
		"byteLength":12408
	},
	{
		"uri":"data:application/octet-stream;base64,",
		"byteLength":13800
	},
	{
		"uri":"data:application/octet-stream;base64,",
		"byteLength":22848
	},
	{
		"uri":"data:application/octet-stream;base64,",
		"byteLength":8160
	},
	{
		"uri":"data:application/octet-stream;base64,",
		"byteLength":384
	},
	{
		"uri":"data:application/octet-stream;base64,",
		"byteLength":288
	},
	{
		"uri":"data:application/octet-stream;base64,",
		"byteLength":1368
	},
	{
		"uri":"data:application/octet-stream;base64,",
		"byteLength":3552
	},
	{
		"uri":"data:application/octet-stream;base64,",
		"byteLength":7632
	},
	{
		"uri":"data:application/octet-stream;base64,",
		"byteLength":1584
	},
	{
		"uri":"data:application/octet-stream;base64,",
		"byteLength":37104
	},
	{
		"uri":"data:application/octet-stream;base64,",
		"byteLength":8352
	},
	{
		"uri":"data:application/octet-stream;base64,",
		"byteLength":13344
	},
	{
		"uri":"data:application/octet-stream;base64,",
		"byteLength":11160
	},
	{
		"uri":"data:application/octet-stream;base64,",
		"byteLength":13224
	},
	{
		"uri":"data:application/octet-stream;base64,",
		"byteLength":13920
	},
	{
		"uri":"data:application/octet-stream;base64,",
		"byteLength":19008
	},
	{
		"uri":"data:application/octet-stream;base64,",
		"byteLength":21792
	},
	{
		"uri":"data:application/octet-stream;base64,",
		"byteLength":3648
	},
	{
		"uri":"data:application/octet-stream;base64,",
		"byteLength":6048
	},
	{
		"uri":"data:application/octet-stream;base64,",
		"byteLength":8280
	},
	{
		"uri":"data:application/octet-stream;base64,",
		"byteLength":7104
	},
	{
		"uri":"data:application/octet-stream;base64,",
		"byteLength":17160
	},
	{
		"uri":"data:application/octet-stream;base64,",
		"byteLength":89184
	},
	{
		"uri":"data:application/octet-stream;base64,",
		"byteLength":23136
	}]
}